<svg fill="none" height="158" viewBox="0 0 158 158" width="158" xmlns="http://www.w3.org/2000/svg" xmlns:xlink="http://www.w3.org/1999/xlink"><filter id="a" color-interpolation-filters="sRGB" filterUnits="userSpaceOnUse" height="158" width="158" x="0" y="0"><feFlood flood-opacity="0" result="BackgroundImageFix"/><feColorMatrix in="SourceAlpha" type="matrix" values="0 0 0 0 0 0 0 0 0 0 0 0 0 0 0 0 0 0 127 0"/><feOffset dy="4"/><feGaussianBlur stdDeviation="2"/><feColorMatrix type="matrix" values="0 0 0 0 0 0 0 0 0 0 0 0 0 0 0 0 0 0 0.25 0"/><feBlend in2="BackgroundImageFix" mode="normal" result="effect1_dropShadow"/><feBlend in="SourceGraphic" in2="effect1_dropShadow" mode="normal" result="shape"/></filter><g filter="url(#a)"><circle cx="79" cy="75" fill="#353553" r="75"/><circle cx="79" cy="75" r="72" stroke="#fff" stroke-width="6"/></g><g fill="#fff"><path d="m40.0768 108.298 4.06 5.18 4.144-5.18h.252v9.702h-.84v-6.58c0-.28.0373-.737.112-1.372-.4947.691-1.106 1.493-1.834 2.408s-1.3347 1.629-1.82 2.142c-1.1667-1.316-2.142-2.45-2.926-3.402-.14-.177-.2613-.341-.364-.49s-.2053-.317-.308-.504c0-.028.0187.098.056.378s.056.495.056.644v6.776h-.84v-9.702zm13.9197 9.842c-.6626 0-1.2553-.154-1.778-.462-.5133-.308-.9146-.737-1.204-1.288-.2893-.551-.434-1.176-.434-1.876s.1447-1.325.434-1.876c.2987-.56.7047-.994 1.218-1.302.5227-.317 1.1154-.476 1.778-.476.6534 0 1.2367.159 1.75.476.5227.308.9287.737 1.218 1.288.2987.551.448 1.176.448 1.876s-.1493 1.325-.448 1.876c-.2893.551-.6953.985-1.218 1.302-.5133.308-1.1013.462-1.764.462zm.014-.756c.7747 0 1.3954-.266 1.862-.798.476-.532.714-1.227.714-2.086 0-.569-.1073-1.069-.322-1.498-.2146-.439-.518-.779-.91-1.022s-.84-.364-1.344-.364c-.5133 0-.966.121-1.358.364s-.6953.588-.91 1.036c-.2146.439-.322.938-.322 1.498s.1074 1.059.322 1.498c.2147.429.518.765.91 1.008s.8447.364 1.358.364zm5.1808-9.548h.84v10.164h-.84zm4.9662 10.36c-.672 0-1.176-.177-1.512-.532-.3267-.355-.49-.915-.49-1.68v-6.734h.84v1.75h2.198v.756h-2.198v4.228c0 .588.1073.98.322 1.176.224.187.4993.28.826.28.196 0 .3593-.009.49-.028.1306-.028.2753-.089.434-.182l.378.644c-.3454.215-.7747.322-1.288.322zm2.807-3.402c.0093.653.168 1.251.476 1.792s.924.812 1.848.812c.4013 0 .77-.051 1.106-.154.3453-.103.7186-.271 1.12-.504l.364.588c-.3734.252-.7887.453-1.246.602-.4574.149-.924.224-1.4.224-.98 0-1.7454-.313-2.296-.938-.5414-.635-.812-1.465-.812-2.492 0-.663.1213-1.283.364-1.862.2426-.588.602-1.064 1.078-1.428s1.036-.546 1.68-.546c.5413 0 1.0313.131 1.47.392.448.252.798.602 1.05 1.05.2613.439.392.929.392 1.47 0 .149-.0047.285-.014.406-.0094.112-.0187.21-.028.294l-.028.294zm4.34-.756c.0093-.065.014-.159.014-.28 0-.392-.0934-.747-.28-1.064-.1867-.327-.4387-.583-.756-.77-.3174-.187-.6674-.28-1.05-.28-.5694 0-1.0594.21-1.47.63-.4014.411-.6534.999-.756 1.764zm5.6198 4.102c-.6627 0-1.2554-.154-1.778-.462-.5134-.308-.9147-.737-1.204-1.288-.2894-.551-.434-1.176-.434-1.876s.1446-1.325.434-1.876c.2986-.56.7046-.994 1.218-1.302.5226-.317 1.1153-.476 1.778-.476.6533 0 1.2366.159 1.75.476.5226.308.9286.737 1.218 1.288.2986.551.448 1.176.448 1.876s-.1494 1.325-.448 1.876c-.2894.551-.6954.985-1.218 1.302-.5134.308-1.1014.462-1.764.462zm.014-.756c.7746 0 1.3953-.266 1.862-.798.476-.532.714-1.227.714-2.086 0-.569-.1074-1.069-.322-1.498-.2147-.439-.518-.779-.91-1.022s-.84-.364-1.344-.364c-.5134 0-.966.121-1.358.364s-.6954.588-.91 1.036c-.2147.439-.322.938-.322 1.498s.1073 1.059.322 1.498c.2146.429.518.765.91 1.008s.8446.364 1.358.364zm14.2566-4.396c.4573.28.8166.625 1.078 1.036.2613.411.392.873.392 1.386 0 .579-.1634 1.097-.49 1.554-.3174.457-.7794.784-1.386.98-.4014.131-.9474.196-1.638.196-.9894 0-1.6894-.023-2.1-.07l-.728-.084v-9.716h3.08c.4293 0 .812.061 1.148.182.532.187.9426.485 1.232.896.2986.411.448.896.448 1.456 0 .429-.0887.807-.266 1.134-.168.327-.434.579-.798.756-.0934.047-.2334.098-.42.154.2333.056.3826.103.448.14zm-4.032-3.934v3.486h2.226c.5973 0 1.078-.154 1.442-.462.3733-.308.56-.751.56-1.33 0-.513-.1587-.91-.476-1.19-.308-.289-.7467-.457-1.316-.504zm2.128 8.316c.7933 0 1.414-.168 1.862-.504s.672-.821.672-1.456c0-.616-.2054-1.12-.616-1.512-.4107-.392-.9847-.588-1.722-.588h-2.324v3.99l1.19.042zm8.0865.77c-.6627 0-1.2554-.154-1.778-.462-.5134-.308-.9147-.737-1.204-1.288-.2894-.551-.434-1.176-.434-1.876s.1446-1.325.434-1.876c.2986-.56.7046-.994 1.218-1.302.5226-.317 1.1153-.476 1.778-.476.6533 0 1.2366.159 1.75.476.5226.308.9286.737 1.2176 1.288.299.551.448 1.176.448 1.876s-.149 1.325-.448 1.876c-.289.551-.695.985-1.2176 1.302-.5134.308-1.1014.462-1.764.462zm.014-.756c.7746 0 1.3953-.266 1.862-.798.476-.532.714-1.227.714-2.086 0-.569-.1074-1.069-.322-1.498-.2147-.439-.518-.779-.91-1.022s-.84-.364-1.344-.364c-.5134 0-.966.121-1.358.364s-.6954.588-.91 1.036c-.2147.439-.322.938-.322 1.498s.1073 1.059.322 1.498c.2146.429.518.765.91 1.008s.8446.364 1.358.364zm8.1206.756c-.663 0-1.255-.154-1.778-.462-.513-.308-.915-.737-1.204-1.288s-.434-1.176-.434-1.876.145-1.325.434-1.876c.299-.56.705-.994 1.218-1.302.523-.317 1.115-.476 1.778-.476.653 0 1.237.159 1.75.476.523.308.929.737 1.218 1.288.299.551.448 1.176.448 1.876s-.149 1.325-.448 1.876c-.289.551-.695.985-1.218 1.302-.513.308-1.101.462-1.764.462zm.014-.756c.775 0 1.395-.266 1.862-.798.476-.532.714-1.227.714-2.086 0-.569-.107-1.069-.322-1.498-.215-.439-.518-.779-.91-1.022s-.84-.364-1.344-.364c-.513 0-.966.121-1.358.364s-.695.588-.91 1.036c-.215.439-.322.938-.322 1.498s.107 1.059.322 1.498c.215.429.518.765.91 1.008s.845.364 1.358.364zm10.893.616h-.924l-2.31-3.15c-.103-.121-.247-.21-.434-.266s-.383-.084-.588-.084h-.616v3.5h-.84v-10.164h.84v5.908h.504c.327 0 .583-.009.77-.028.196-.019.369-.065.518-.14.317-.159.593-.415.826-.77.243-.364.425-.728.546-1.092.131-.373.196-.63.196-.77h.77c-.009.317-.126.723-.35 1.218-.215.485-.476.929-.784 1.33s-.593.644-.854.728zm3.261.168c-.943 0-1.82-.364-2.632-1.092l.462-.56c.355.289.705.513 1.05.672.355.149.733.224 1.134.224.504 0 .896-.117 1.176-.35.289-.243.434-.569.434-.98 0-.261-.065-.471-.196-.63-.121-.168-.289-.303-.504-.406-.205-.103-.579-.266-1.12-.49-.495-.205-.877-.383-1.148-.532s-.485-.331-.644-.546c-.159-.224-.238-.504-.238-.84 0-.551.196-.989.588-1.316.392-.336.915-.504 1.568-.504.336 0 .667.047.994.14.336.093.621.229.854.406l-.35.602c-.429-.261-.915-.392-1.456-.392-.429 0-.761.084-.994.252s-.35.406-.35.714c0 .233.061.425.182.574.131.149.294.275.49.378.205.093.541.233 1.008.42.532.215.943.411 1.232.588.299.168.527.378.686.63.168.243.252.546.252.91 0 .644-.229 1.162-.686 1.554-.448.383-1.045.574-1.792.574z"/><path d="m36.9569 45.104 20.88 26.64 21.312-26.64h1.296v49.896h-4.32v-33.84c0-1.44.192-3.792.576-7.056-2.544 3.552-5.688 7.68-9.432 12.384s-6.864 8.376-9.36 11.016c-6-6.768-11.016-12.6-15.048-17.496-.72-.912-1.344-1.752-1.872-2.52s-1.056-1.632-1.584-2.592c0-.144.096.504.288 1.944s.288 2.544.288 3.312v34.848h-4.32v-49.896zm82.9631 24.12c2.352 1.44 4.2 3.216 5.544 5.328s2.016 4.488 2.016 7.128c0 2.976-.84 5.64-2.52 7.992-1.632 2.352-4.008 4.032-7.128 5.04-2.064.672-4.872 1.008-8.424 1.008-5.088 0-8.688-.12-10.7999-.36l-3.744-.432v-49.968h15.8399c2.208 0 4.176.312 5.904.936 2.736.96 4.848 2.496 6.336 4.608 1.536 2.112 2.304 4.608 2.304 7.488 0 2.208-.456 4.152-1.368 5.832-.864 1.68-2.232 2.976-4.104 3.888-.48.24-1.2.504-2.16.792 1.2.288 1.968.528 2.304.72zm-20.7359-20.232v17.928h11.4479c3.072 0 5.544-.792 7.416-2.376 1.92-1.584 2.88-3.864 2.88-6.84 0-2.64-.816-4.68-2.448-6.12-1.584-1.488-3.84-2.352-6.768-2.592zm10.9439 42.768c4.08 0 7.272-.864 9.576-2.592s3.456-4.224 3.456-7.488c0-3.168-1.056-5.76-3.168-7.776s-5.064-3.024-8.856-3.024h-11.9519v20.52l6.1199.216z"/></g></svg>